#Comment line ignore any data following # character
#Hierarchical Translation and Rotation (.htr) file
[Header]		#Header keywords are followed by a single value
FileType htr		#Single word string
DataType HTRS		#Translation followed by rotation and scale data
FileVersion 1		#integer
NumSegments 18		#integer
NumFrames 5		#integer
DataFrameRate 60		#integer, data frame rate in this file
EulerRotationOrder ZYX
CalibrationUnits mm
RotationUnits Degrees
GlobalAxisofGravity Y
BoneLengthAxis Y
ScaleFactor 1.000000
[SegmentNames&Hierarchy]
#CHILD	PARENT
Head	Neck
Neck	Chest
Chest	Hips
LeftShoulder	LeftCollar
RightShoulder	RightCollar
LeftElbow	LeftShoulder
RightElbow	RightShoulder
LeftWrist	LeftElbow
RightWrist	RightElbow
Hips	GLOBAL
LeftHip	Hips
RightHip	Hips
LeftKnee	LeftHip
RightKnee	RightHip
LeftAnkle	LeftKnee
RightAnkle	RightKnee
LeftCollar	Chest
RightCollar	Chest
[BasePosition]
#SegmentName Tx, Ty, Tz, Rx, Ry, Rz, BoneLength
Head	0.000003	141.966248	0.000002	-37.745777	-8.179454	6.203664	80.000046
Neck	0.000000	379.566772	0.000000	32.855431	-5.194619	1.823337	141.966263
Chest	0.000000	94.891693	0.000000	0.000002	12.877405	-0.000012	379.566803
LeftShoulder	0.000003	154.023666	0.000005	171.957962	-79.977570	-157.094910	215.219986
RightShoulder	-0.000001	146.408707	-0.000001	20.020029	60.865143	-8.207462	240.139038
LeftElbow	0.000007	215.219971	-0.000011	-24.162848	54.442085	-17.491318	336.440125
RightElbow	-0.000021	240.139038	0.000007	-21.925606	-43.617706	23.102211	322.101532
LeftWrist	-0.000014	336.440094	0.000002	173.178864	-0.531422	156.628021	100.348160
RightWrist	0.000005	322.101501	0.000026	1.868945	1.747480	14.125610	109.739998
Hips	377.886597	1077.530640	704.474976	-179.011169	36.455761	-178.006714	94.891701
LeftHip	95.336761	5.238981	-8.336124	-0.485735	-9.415434	-176.117065	525.916443
RightHip	-96.119095	-4.691877	-4.857316	2.457280	-1.423929	-179.125565	528.302429
LeftKnee	0.000004	525.916443	0.000001	-10.646533	-14.541370	-1.855900	514.711975
RightKnee	-0.000002	528.302429	0.000004	-12.768950	2.118825	-3.063609	521.764099
LeftAnkle	0.000003	514.711975	0.000009	97.965164	-0.000001	0.000000	253.446518
RightAnkle	0.000001	521.764099	-0.000002	99.242271	0.000002	0.000000	256.283173
LeftCollar	19.999998	366.483276	-15.126845	169.660507	-4.312743	90.901894	154.023682
RightCollar	-19.999996	366.483215	-15.126822	171.369568	4.171492	-91.645760	146.408707
#Beginning of Data. Separated by tabs
[Head]
#Fr	Tx	Ty	Tz	Rx	Ry	Rz	SF
65	-0.000006	3.943405	-0.000005	-8.648667	-3.395958	-2.043666	0.999999
66	-0.000003	5.118881	-0.000008	-9.798668	-2.845487	-2.015990	1.000000
67	-0.000006	6.101471	-0.000016	-10.443550	-2.325444	-1.483975	1.000000
68	-0.000002	7.251358	-0.000004	-11.235574	-1.873199	-0.898266	0.999999
69	-0.000010	9.053192	0.000002	-12.405545	-1.471463	-0.499162	0.999999
[Neck]
#Fr	Tx	Ty	Tz	Rx	Ry	Rz	SF
65	-0.000008	-10.146271	0.000005	-2.592739	2.284937	-8.664476	1.027777
66	-0.000009	-11.553040	0.000001	-0.581253	2.580151	-8.854276	1.036057
67	0.000003	-13.020172	0.000002	1.289887	2.872410	-9.408940	1.042978
68	-0.000000	-14.606354	0.000011	3.011527	3.206874	-10.019349	1.051078
69	0.000007	-16.173676	-0.000004	4.584178	3.548422	-10.420155	1.063770
[Chest]
#Fr	Tx	Ty	Tz	Rx	Ry	Rz	SF
65	-0.000001	-2.536575	0.000000	-0.000023	-4.430882	0.000021	0.973269
66	0.000000	-2.888321	-0.000001	-0.000002	-5.100749	0.000000	0.969563
67	0.000000	-3.255104	-0.000000	-0.000028	-5.913026	0.000017	0.965697
68	0.000001	-3.651566	0.000001	-0.000018	-6.803856	0.000025	0.961518
69	-0.000001	-4.043419	-0.000000	0.000004	-7.917812	0.000007	0.957389
[LeftShoulder]
#Fr	Tx	Ty	Tz	Rx	Ry	Rz	SF
65	-0.000007	5.130783	-0.000004	48.310398	19.682390	72.920746	1.147882
66	-0.000004	6.248032	-0.000009	49.582184	20.817867	74.229073	1.140410
67	-0.000005	7.454010	-0.000003	50.875160	22.247282	75.757645	1.133056
68	-0.000001	8.599396	0.000007	52.172169	23.904604	77.442894	1.126469
69	-0.000007	9.680389	0.000003	53.475197	25.800489	79.290657	1.121028
[RightShoulder]
#Fr	Tx	Ty	Tz	Rx	Ry	Rz	SF
65	0.000000	7.044891	-0.000002	17.596191	-30.707901	-66.836487	1.014721
66	-0.000001	6.881012	-0.000003	19.651621	-31.313707	-67.457397	1.002466
67	-0.000000	6.716644	-0.000003	21.947666	-32.224586	-68.154297	0.990376
68	-0.000003	6.607300	-0.000012	24.423262	-33.436993	-68.993217	0.980185
69	-0.000002	6.582703	0.000001	26.979557	-34.884441	-69.906548	0.972374
[LeftElbow]
#Fr	Tx	Ty	Tz	Rx	Ry	Rz	SF
65	0.000008	31.827271	-0.000003	-73.443893	-24.480234	5.390871	0.707861
66	-0.000005	30.219147	0.000030	-75.920837	-25.025660	9.527001	0.688424
67	-0.000002	28.636383	0.000004	-78.566681	-25.326811	13.636418	0.668834
68	-0.000009	27.218735	0.000014	-81.360161	-25.394482	17.597631	0.650974
69	-0.000024	26.047577	0.000021	-84.183342	-25.254044	20.976282	0.635873
[RightElbow]
#Fr	Tx	Ty	Tz	Rx	Ry	Rz	SF
65	0.000015	3.535172	0.000002	-70.766045	47.102840	6.548705	0.813465
66	0.000033	0.592300	0.000000	-73.825386	47.527718	3.797220	0.800669
67	0.000031	-2.311218	-0.000004	-76.924088	47.846600	1.455447	0.787862
68	0.000024	-4.758484	-0.000010	-79.717186	48.092701	-0.041188	0.775882
69	0.000022	-6.634109	-0.000017	-82.265800	48.325409	-0.817307	0.765721
[LeftWrist]
#Fr	Tx	Ty	Tz	Rx	Ry	Rz	SF
65	0.000018	-98.287140	-0.000031	123.041359	-62.110142	-106.697021	0.912359
66	0.000001	-104.826508	0.000007	121.000282	-61.651436	-104.545448	0.913265
67	0.000046	-111.417572	-0.000000	118.816017	-60.837994	-102.056923	0.917364
68	0.000017	-117.426270	0.000007	116.862114	-59.507061	-99.615379	0.921020
69	0.000041	-122.506882	-0.000012	115.429756	-58.023163	-97.405212	0.926887
[RightWrist]
#Fr	Tx	Ty	Tz	Rx	Ry	Rz	SF
65	-0.000014	-60.083008	-0.000037	-121.286507	77.278931	-108.682732	0.874059
66	-0.000010	-64.204651	-0.000036	-119.518913	78.161217	-108.404274	0.876767
67	0.000034	-68.329773	-0.000017	-118.746849	78.672997	-108.437004	0.880334
68	-0.000021	-72.188828	-0.000033	-119.152374	78.929550	-108.906746	0.884250
69	0.000011	-75.461578	-0.000006	-120.305481	78.805565	-109.452232	0.888184
[Hips]
#Fr	Tx	Ty	Tz	Rx	Ry	Rz	SF
65	-1111.724609	-111.073364	-707.147339	-105.536575	-82.723434	115.991768	0.973269
66	-1111.106934	-110.852051	-710.504211	-106.989677	-82.373894	117.749016	0.969562
67	-1111.713745	-110.589600	-713.438354	-107.836159	-82.177162	119.177284	0.965697
68	-1113.834839	-110.193176	-716.084290	-108.430779	-82.136261	120.676308	0.961519
69	-1117.401367	-109.715576	-718.475830	-107.551651	-82.300606	120.994484	0.957389
[LeftHip]
#Fr	Tx	Ty	Tz	Rx	Ry	Rz	SF
65	0.745598	-9.339988	3.120457	34.766453	2.539805	-6.857520	1.000248
66	0.691536	-9.700529	3.234493	35.095055	2.599338	-7.260716	0.999421
67	0.616722	-9.971161	3.390288	35.682209	2.706607	-7.502607	0.997653
68	0.490517	-10.240868	3.911620	36.659775	2.750349	-7.624119	0.996110
69	0.510422	-10.497162	4.195497	38.029373	2.887376	-7.638517	0.995103
[RightHip]
#Fr	Tx	Ty	Tz	Rx	Ry	Rz	SF
65	0.042671	5.515063	-1.753928	39.091095	4.706579	-17.802481	0.996903
66	0.086380	5.712635	-1.822335	39.634621	4.949921	-17.823673	0.996887
67	0.239815	5.686886	-2.251569	40.500465	5.211768	-17.738823	0.997157
68	0.453621	5.846762	-2.437212	41.616982	5.441047	-17.562107	0.997103
69	0.522919	5.822017	-2.835988	42.948807	5.644069	-17.420071	0.996529
[LeftKnee]
#Fr	Tx	Ty	Tz	Rx	Ry	Rz	SF
65	-0.000002	0.130188	0.000019	-51.477383	-2.687193	14.070670	0.988706
66	-0.000008	-0.304810	0.000024	-51.479298	-3.015061	14.284948	0.989830
67	-0.000002	-1.234436	-0.000046	-51.276371	-3.203174	14.255942	0.989820
68	0.000008	-2.046021	0.000011	-51.086796	-3.391586	14.400498	0.989663
69	0.000001	-2.575684	0.000045	-50.855923	-3.383898	14.424894	0.988942
[RightKnee]
#Fr	Tx	Ty	Tz	Rx	Ry	Rz	SF
65	0.000010	-1.636108	0.000038	-45.172176	-3.823792	-12.166232	0.994661
66	0.000032	-1.644409	0.000002	-45.095634	-4.329446	-12.173139	0.995508
67	-0.000013	-1.501831	-0.000053	-45.175755	-4.832354	-11.906000	0.996393
68	0.000054	-1.530518	0.000038	-45.270660	-4.968953	-11.494382	0.996390
69	0.000007	-1.833740	0.000029	-45.437122	-4.667447	-10.968560	0.996253
[LeftAnkle]
#Fr	Tx	Ty	Tz	Rx	Ry	Rz	SF
65	-0.000004	-5.813019	-0.000052	20.489918	-0.000001	-0.000001	1.030888
66	-0.000020	-5.234406	-0.000021	20.406460	0.000000	-0.000002	1.030460
67	0.000002	-5.239685	0.000016	20.291548	0.000000	-0.000002	1.031278
68	-0.000020	-5.320343	-0.000024	20.097898	0.000000	-0.000001	1.031108
69	-0.000008	-5.691437	0.000005	19.873325	-0.000000	-0.000001	1.030454
[RightAnkle]
#Fr	Tx	Ty	Tz	Rx	Ry	Rz	SF
65	-0.000004	-2.785522	-0.000023	11.039307	-0.000001	0.000003	0.997356
66	-0.000010	-2.343628	-0.000019	10.888755	0.000002	0.000001	0.996678
67	-0.000015	-1.881897	-0.000024	10.815696	-0.000001	0.000002	0.997089
68	0.000039	-1.883606	-0.000026	10.721798	0.000002	-0.000000	0.996864
69	0.000017	-1.955139	-0.000033	10.624164	0.000001	0.000000	0.997128
[LeftCollar]
#Fr	Tx	Ty	Tz	Rx	Ry	Rz	SF
65	0.000002	-10.890137	0.676746	-2.866954	-3.215089	4.441058	1.033311
66	0.000000	-11.917389	0.322945	-2.253484	-1.832859	4.742720	1.040565
67	-0.000010	-12.941193	-0.068000	-1.537992	-0.259234	5.080785	1.048395
68	0.000013	-14.048859	-0.464820	-0.756291	1.397635	5.400576	1.055832
69	0.000004	-15.115845	-0.853867	0.027678	3.093734	5.721273	1.062850
[RightCollar]
#Fr	Tx	Ty	Tz	Rx	Ry	Rz	SF
65	-0.000017	-10.890015	0.676674	-13.595881	2.089079	-1.944137	1.048118
66	-0.000011	-11.917328	0.322932	-13.343982	0.685266	-2.211884	1.046999
67	-0.000008	-12.941071	-0.068020	-13.049142	-0.910403	-2.506304	1.045876
68	-0.000025	-14.048798	-0.464865	-12.723845	-2.585993	-2.816846	1.045129
69	-0.000008	-15.115784	-0.853903	-12.391243	-4.299370	-3.158525	1.044961
[EndOfFile]
